<svg height="86" viewBox="0 0 446 86" width="446" xmlns="http://www.w3.org/2000/svg"><g fill="none"><g transform="translate(0 .076)"><path d="m129.3 11.624c-22.5 17.4-48.4 59.4-52.7 70.5-.4 1 .4 1.9 1.4 2.2.9735911.3147325 1.9802495.5160642 3 .6 1.1139425.0548474 2.1469712-.5808626 2.6-1.6 10-21.7 29.2-56 46.6-71.1.8-.6.2-1.5-.9-.6" fill="#63b5e5"/><path d="m57 31.524c-.2209139 0-.4-.1790861-.4-.4l.2-9.1c0-.2.2-.3.4-.3s29 4.7 36.8 5.6h.4c9.035977-7.9219592 18.814529-14.9544794 29.2-21 3.866692-2.25619217 7.875031-4.26036135 12-6 .7-.3 1.5-.5 1.8-.1s.2 1-.5 1.4c-32.5 18.8-55.8 55-68.2 80.2-.2037911.4388317-.6197271.7413307-1.1.8-.5350198.0627009-1.0769509.0288302-1.6-.1-19.3-3.1-65.3-11.7-65.3-11.7-.2209139 0-.4-.1790861-.4-.4l-.3-13.1c0-.3.2-.5.4-.4l60.9 10.1.5-.2 4.2-6.7c.5800043-.7678832 1.1142633-1.5692717 1.6-2.4l.3-.4c.2-.3 0-.6-.4-.7l-39.5-7.4c-.2 0-.3-.2-.3-.4l-.3-11.4c0-.2.2-.4.4-.3l48.6 8.4c.1.1.4-.1.5-.1 1.8-2.2 3.7-4.4 5.2-6l1.9-2.1c.4-.5.3-.9-.2-1z" fill="#84bd41"/></g><path d="m174.252567 9.06398104h-12.097651l-.799845 6.44549766h10.597942l-.999806 8.4597156h-10.597942l-.799845 7.5533175h14.697147l-.899825 8.5604266h-24.295283l4.599107-39.5793839h21.595807zm27.694623 31.01895736.999806-8.5604266h-13.697341l3.599301-31.0189573h-9.498156l-4.499126 39.5793839zm30.69404-39.5793839h-21.595807l-4.499126 39.5793839h24.195302l.999806-8.5604266h-14.797127l.799845-7.5533175h10.697923l.899825-8.4597156h-10.497962l.699864-6.44549766h12.197632zm13.697341 0h-9.098234l6.598719 40.0829384h6.098816l15.996894-40.0829384h-9.798097l-7.098622 19.0343602zm33.693458 14.5023697.899826 9.6682464h-4.399146zm6.398758-14.5023697h-9.398175l-15.896914 39.5793839h9.698117l2.999418-8.3590048h7.798486l.799844 8.3590048h9.798098zm14.597166 39.5793839h9.398175l3.599301-30.11255925h9.698117l1.099787-9.46682465h-28.694429l-1.199767 9.46682465h9.698117zm30.294118-39.5793839-4.599107 39.5793839h9.398175l4.699088-39.5793839zm29.694235 29.8104265c-3.899243 0-6.198797-3.6255924-6.198797-8.2582938s3.099399-11.7831754 8.39837-11.7831754c3.39934 0 6.098816 3.122038 6.098816 8.5604266s-3.29936 11.4810426-8.298389 11.4810426m-.099981 10.2725119c11.197826 0 18.096487-9.8696683 18.096487-22.4585308 0-12.58886257-6.598719-18.1279621-15.496991-18.1279621-8.898273 0-18.496409 7.75473934-18.496409 22.4585308 0 14.7037915 8.898272 18.1279621 15.896913 18.1279621m44.991265-.5035545h8.49835l4.599107-39.5793839h-9.398175l-2.399534 20.7464455-10.697923-20.7464455h-8.49835l-4.599107 39.5793839h9.298194l2.499515-20.6457346zm25.195108-8.5604266c-1.599689 0-3.699282-.8056872-6.998641-3.4241706l-1.299748-1.007109-1.099786 9.6682465.299942.3021327c2.932942 2.2521604 6.510231 3.4886281 10.19802 3.5248815 8.898272 0 11.197826-7.5533175 11.197826-12.186019 0-4.6327014-1.499709-7.4526066-6.098816-12.1860189-1.077177-.8704879-1.991355-1.9277668-2.699476-3.1220379-.326477-.468857-.468952-1.0429188-.399923-1.6113744-.056344-.6216673.150275-1.2384328.569039-1.69860324.418764-.4601704 1.010814-.72104381 1.630534-.71845842 2.699476 0 5.498933 2.11492896 6.098816 2.71919436l1.299748 1.1078199 1.199767-9.66824648-.499903-.30213271c-2.786152-1.86910521-6.050882-2.88366637-9.398175-2.92061611-7.698506 0-10.697923 6.24407583-10.697923 11.17891 0 3.021327.499903 5.3376777 4.599107 10.07109.999806 1.007109 1.69967 1.9135071 2.299553 2.6184834.511565.567614.979493 1.1736301 1.399729 1.8127962.604966.7732889.92319 1.7349317.899825 2.7191943 0 1.4099526-.599884 3.1220379-2.499515 3.1220379m-269.347705 28.400474c-.6824-.1990864-1.389147-.3007877-2.099592-.3021327-5.298971 0-8.298389 4.7334123-9.098234 9.4668246-.799844 4.7334123.699865 10.0710901 5.898855 10.0710901.823272-.0222305 1.635941-.1927732 2.399534-.5035545l-.899825 5.6398104c-.882725.3908521-1.835247.596455-2.799457.6042654-8.59833 0-12.197631-7.8554502-10.897884-15.8116114 1.299748-7.9561611 7.298583-15.308092 15.496992-15.308092.997605-.0030941 1.984966.2026796 2.899437.6043006zm2.399534 24.5734597 4.799069-30.313981h5.998835c3.799262 0 10.497962.4028436 9.198214 8.6611374-.394203 3.3874938-2.463685 6.3438345-5.498932 7.8554502l3.099398 13.7973934h-6.298777l-3.099398-13.9988152-2.199573 13.9988152zm8.698312-17.221564h.999805c2.699476 0 4.099205-1.8127962 4.499127-4.3305687s-.399922-3.9277251-3.39934-3.8270142h-.799845zm30.094157-13.092417-.899826 5.6398104h-5.998835l-1.099786 6.6469194h5.298971l-.899825 5.6398104h-5.298972l-.999806 6.8483413h6.098816l-.899825 5.5390995h-12.097651l4.799068-30.313981zm1.299747 30.313981 4.799069-30.313981h4.499126c.999806 0 13.697341-1.5106636 11.097845 15.4087677-1.399728 8.6611375-5.698893 14.9052133-15.097068 14.9052133zm14.397205-14.9052133c.599884-3.9277251.399922-9.9703791-4.499126-9.9703791l-3.099399 19.5379147c4.799069.2014218 6.998642-5.8412323 7.598525-9.5675356zm19.896137-15.4087677-4.799068 30.313981h-5.898855l4.799068-30.313981zm20.496021 0-.899826 5.6398104h-4.699087l-3.899243 24.6741706h-5.998835l3.899242-24.6741706h-4.599107l.799845-5.6398104zm24.695205 0-3.099398 19.6386255c-.299942 2.3163508-1.199767 5.7405214 2.099592 5.7405214 3.29936 0 3.29936-2.2156398 3.599301-4.4312796l3.29936-20.9478673h5.998835l-3.499321 22.1563981c-.499902 3.2227488-1.69967 8.6611374-10.298 8.6611374-5.598913 0-8.49835-2.6184834-7.598525-8.2582938l3.599301-22.5592417zm24.095322 0 4.599107 18.3293838c-.096767-1.5173753.00407-3.0409822.299942-4.5319905l2.099592-13.6966824h5.998835l-4.799068 30.313981h-5.598913l-4.499126-18.3293839h-.099981l-.199961 3.1220379v1.2085308l-2.199573 13.8981043h-5.998835l4.799068-30.313981zm25.59503 0-4.799068 30.313981h-5.998835l4.799068-30.313981zm23.495439 15.2073459c-1.799651 11.3803318-7.698506 15.6101896-12.997477 15.6101896s-9.998059-4.2298578-8.198408-15.6101896c1.799651-11.3803317 7.798486-15.7109004 13.097457-15.7109004s9.898078 4.3305687 8.098428 15.7109004zm-12.197632 10.0710901c3.999223 0 5.498932-7.6540285 5.898855-10.0710901.399922-2.4170616 1.299747-10.1718009-2.699476-10.1718009-3.999224 0-5.398952 7.4526066-5.798874 10.1718009-.399923 2.7191943-1.299748 10.0710901 2.599495 10.0710901zm25.894972-25.278436 4.599107 18.3293838c-.096767-1.5173753.004071-3.0409822.299942-4.5319905l2.099592-13.6966824h5.998836l-4.799068 30.313981h-5.598913l-4.499127-18.228673h-.09998l-.199962 3.1220379v1.2085308l-2.199573 13.8981043h-5.998835l4.699088-30.4146919z" fill="#0080bb"/></g></svg>